# xmcd
#
# Track frame offsets:
# 150
# 17764
# 32278
# 52378
# 68066
# 100395
# 141295
# 161626
# 176101
# 192373
# 208506
# 226823
# 247239
# 267966
# 288883
# 320983
# 341104
#
# Disc length: 4795 seconds
#
#
# Revision: 0
# Processed by: cddbd v1.5.2PL0 Copyright (c) Steve Scherf et al.
# Submitted via: FreeRIP 2.945 
#
DISCID=0912b911
DTITLE=Technics - Pure summer experience 2005
DYEAR=1900
DGENRE=Trance
TTITLE0=Delerium feat. Sarah Maclachlan - Silence (Filterheadz rmx)
TTITLE1=DJ Tiesto - Just Be
TTITLE2=Yves Deruyter - Born Slippy
TTITLE3=Armin vs Mike - Pound
TTITLE4=Johan Gielen - Flash
TTITLE5=EnMass - Cq (seek you)
TTITLE6=Ridgwalkers feat El - Find
TTITLE7=Anneke van Hoof - Lie to me
TTITLE8=Escade - Shuffle royal
TTITLE9=DJ Alex Cervera feat. Lucy - Show me the light
TTITLE10=Jesus Play - I was there (Nenes remix)
TTITLE11=M.I.D.O.R. and Six4height - No man's land
TTITLE12=Tom whole - Deep Dream
TTITLE13=Julius Mc and Jan Vervloet - Enjoying the sound
TTITLE14=Ferry Corsten - Sweet sorrow
TTITLE15=Tom Whole - Trance resistance
TTITLE16=DJ Tiesto - Breda 8pm
EXTD=
EXTT0=
EXTT1=
EXTT2=
EXTT3=
EXTT4=
EXTT5=
EXTT6=
EXTT7=
EXTT8=
EXTT9=
EXTT10=
EXTT11=
EXTT12=
EXTT13=
EXTT14=
EXTT15=
EXTT16=
PLAYORDER=
